<svg width="80" height="66" viewBox="0 0 80 66" fill="none" xmlns="http://www.w3.org/2000/svg">
<path d="M0.00805664 65.6667V54.3933C0.00805664 52.0912 0.480279 49.9584 1.42472 47.9948C2.36917 46.0313 3.67472 44.5417 5.34139 43.5261C6.11917 43.0521 6.86917 42.612 7.59139 42.2057C8.36917 41.7995 9.17472 41.4271 10.0081 41.0886V65.6667H0.00805664ZM13.3414 37.2292C10.5636 37.2292 8.2025 36.0443 6.25806 33.6745C4.31361 31.3047 3.34139 28.4271 3.34139 25.0417C3.34139 21.6563 4.31361 18.7787 6.25806 16.4089C8.2025 14.0391 10.5636 12.8542 13.3414 12.8542C16.1192 12.8542 18.4803 14.0391 20.4247 16.4089C22.3692 18.7787 23.3414 21.6563 23.3414 25.0417C23.3414 28.4271 22.3692 31.3047 20.4247 33.6745C18.4803 36.0443 16.1192 37.2292 13.3414 37.2292ZM13.3414 29.1042C14.2858 29.1042 15.0636 28.7318 15.6747 27.987C16.3414 27.1745 16.6747 26.1927 16.6747 25.0417C16.6747 23.8906 16.3414 22.9427 15.6747 22.1979C15.0636 21.3854 14.2858 20.9792 13.3414 20.9792C12.3969 20.9792 11.5914 21.3854 10.9247 22.1979C10.3136 22.9427 10.0081 23.8906 10.0081 25.0417C10.0081 26.1927 10.3136 27.1745 10.9247 27.987C11.5914 28.7318 12.3969 29.1042 13.3414 29.1042ZM13.3414 65.6667V54.2917C13.3414 51.9896 13.8136 49.8906 14.7581 47.9948C15.7581 46.0313 17.0636 44.5417 18.6747 43.5261C22.1192 41.4271 25.6192 39.8698 29.1747 38.8542C32.7303 37.7709 36.3414 37.2292 40.0081 37.2292C43.6747 37.2292 47.2858 37.7709 50.8414 38.8542C54.3969 39.8698 57.897 41.4271 61.3414 43.5261C62.9525 44.5417 64.2303 46.0313 65.1747 47.9948C66.1747 49.8906 66.6747 51.9896 66.6747 54.2917V65.6667H13.3414ZM20.0081 57.5417H60.0081V54.2917C60.0081 53.5469 59.8414 52.8698 59.5081 52.2604C59.2303 51.6511 58.8414 51.1771 58.3414 50.8386C55.3414 49.0104 52.3136 47.6563 49.2581 46.7761C46.2025 45.8281 43.1192 45.3542 40.0081 45.3542C36.8969 45.3542 33.8136 45.8281 30.7581 46.7761C27.7025 47.6563 24.6747 49.0104 21.6747 50.8386C21.1747 51.1771 20.7581 51.6511 20.4247 52.2604C20.1469 52.8698 20.0081 53.5469 20.0081 54.2917V57.5417ZM40.0081 33.1667C36.3414 33.1667 33.2025 31.5755 30.5914 28.3932C27.9803 25.211 26.6747 21.3854 26.6747 16.9167C26.6747 12.4479 27.9803 8.62242 30.5914 5.44013C33.2025 2.25783 36.3414 0.666687 40.0081 0.666687C43.6747 0.666687 46.8136 2.25783 49.4247 5.44013C52.0358 8.62242 53.3414 12.4479 53.3414 16.9167C53.3414 21.3854 52.0358 25.211 49.4247 28.3932C46.8136 31.5755 43.6747 33.1667 40.0081 33.1667ZM40.0081 25.0417C41.8414 25.0417 43.3969 24.263 44.6747 22.7058C46.0081 21.0808 46.6747 19.1511 46.6747 16.9167C46.6747 14.6823 46.0081 12.7865 44.6747 11.2292C43.3969 9.60419 41.8414 8.79169 40.0081 8.79169C38.1747 8.79169 36.5914 9.60419 35.2581 11.2292C33.9803 12.7865 33.3414 14.6823 33.3414 16.9167C33.3414 19.1511 33.9803 21.0808 35.2581 22.7058C36.5914 24.263 38.1747 25.0417 40.0081 25.0417ZM66.6747 37.2292C63.897 37.2292 61.5358 36.0443 59.5914 33.6745C57.647 31.3047 56.6747 28.4271 56.6747 25.0417C56.6747 21.6563 57.647 18.7787 59.5914 16.4089C61.5358 14.0391 63.897 12.8542 66.6747 12.8542C69.4525 12.8542 71.8136 14.0391 73.7581 16.4089C75.7025 18.7787 76.6747 21.6563 76.6747 25.0417C76.6747 28.4271 75.7025 31.3047 73.7581 33.6745C71.8136 36.0443 69.4525 37.2292 66.6747 37.2292ZM66.6747 29.1042C67.6192 29.1042 68.3969 28.7318 69.0081 27.987C69.6747 27.1745 70.0081 26.1927 70.0081 25.0417C70.0081 23.8906 69.6747 22.9427 69.0081 22.1979C68.3969 21.3854 67.6192 20.9792 66.6747 20.9792C65.7303 20.9792 64.9247 21.3854 64.2581 22.1979C63.647 22.9427 63.3414 23.8906 63.3414 25.0417C63.3414 26.1927 63.647 27.1745 64.2581 27.987C64.9247 28.7318 65.7303 29.1042 66.6747 29.1042ZM70.0081 65.6667V41.0886C70.8414 41.4271 71.6192 41.7995 72.3414 42.2057C73.1192 42.612 73.8969 43.0521 74.6747 43.5261C76.3414 44.5417 77.6469 46.0313 78.5914 47.9948C79.5358 49.9584 80.0081 52.0912 80.0081 54.3933V65.6667H70.0081Z" fill="#254C65"/>
</svg>
