<?xml version="1.0" encoding="UTF-8"?>
<svg id="Layer_1" data-name="Layer 1" xmlns="http://www.w3.org/2000/svg" viewBox="0 0 376.34 319.42">
  <defs>
    <style>
      .cls-1 {
        fill: #1e90ff;
      }
    </style>
  </defs>
  <path class="cls-1" d="M101.79,291.63c30.8,0,49.55,12.05,59.26,18.08,3.01,1.67,12.05,7.03,13.73,7.37V40.18C162.72,17.08,130.92,0,93.08,0,50.56,0,12.05,19.75,0,44.2v258.82c0,12.05,7.03,16.41,15.74,16.41,7.03,0,11.38-2.34,15.74-5.69,11.05-10.04,36.16-22.1,70.31-22.1ZM274.89,291.63c33.82,0,59.26,12.05,70.31,22.1,4.02,3.35,8.7,5.69,15.74,5.69,8.71,0,15.4-4.35,15.4-16.41V44.2C364.29,19.75,325.78,0,283.26,0c-37.16,0-68.97,17.08-81.36,40.18v277.57c2.34-.34,10.38-6.03,13.73-8.04,9.38-6.36,28.46-18.08,59.26-18.08Z"/>
</svg>