<svg width="47" height="47" viewBox="0 0 47 47" fill="none" xmlns="http://www.w3.org/2000/svg">
<g clip-path="url(#clip0_54643_92)">
<path d="M30.6 9.80005H16.4C12.7 9.80005 9.79999 12.8 9.79999 16.4V30.6C9.79999 34.3 12.8 37.2001 16.4 37.2001H30.6C34.3 37.2001 37.2 34.2 37.2 30.6V16.4C37.2 12.7 34.2 9.80005 30.6 9.80005ZM34.8 30.1C34.8 32.7 32.7 34.8 30.1 34.8H16.9C14.3 34.8 12.2 32.7 12.2 30.1V16.9C12.2 14.3 14.3 12.2001 16.9 12.2001H30.1C32.7 12.2001 34.8 14.3 34.8 16.9V30.1Z" fill="white"/>
<path d="M23.5 16.4C19.6 16.4 16.4 19.6 16.4 23.5C16.4 27.4 19.6 30.6 23.5 30.6C27.4 30.6 30.6 27.4 30.6 23.5C30.6 19.6 27.4 16.4 23.5 16.4ZM23.5 28.2C20.9 28.2 18.8 26.1 18.8 23.5C18.8 20.9 20.9 18.8 23.5 18.8C26.1 18.8 28.2 20.9 28.2 23.5C28.2 26.1 26.1 28.2 23.5 28.2Z" fill="white"/>
<path d="M31.1 17.3C31.8732 17.3 32.5 16.6732 32.5 15.9C32.5 15.1268 31.8732 14.5 31.1 14.5C30.3268 14.5 29.7 15.1268 29.7 15.9C29.7 16.6732 30.3268 17.3 31.1 17.3Z" fill="white"/>
<path d="M36.8 46.8H10.1C4.60001 46.8 0.100006 42.3 0.100006 36.8V10.1C0.100006 4.59998 4.60001 0.0999756 10.1 0.0999756H36.8C42.3 0.0999756 46.8 4.59998 46.8 10.1V36.8C46.8 42.3 42.3 46.8 36.8 46.8ZM10.2 1.99998C5.70001 1.99998 2.00001 5.69998 2.00001 10.2V36.9C2.00001 41.4 5.70001 45.1 10.2 45.1H36.9C41.4 45.1 45.1 41.4 45.1 36.9V10.2C45.1 5.69998 41.4 1.99998 36.9 1.99998H10.2Z" fill="white"/>
</g>
<defs>
<clipPath id="clip0_54643_92">
<rect width="47" height="47" fill="white"/>
</clipPath>
</defs>
</svg>
