<?xml version="1.0" encoding="UTF-8"?>
<svg id="Game-Controller--Streamline-Ionic-Filled" xmlns="http://www.w3.org/2000/svg" viewBox="0 0 45 33">
  <defs>
    <style>
      .cls-1 {
        fill: #1e90ff;
      }
    </style>
  </defs>
  <path class="cls-1" d="M43.79,15.5c-1.99-8.99-4.98-13.79-9.42-15.1C33.44.13,32.47,0,31.5,0,30.21,0,29.09.31,27.91.65c-1.43.4-3.05.85-5.41.85s-3.99-.45-5.42-.85C15.9.31,14.78,0,13.5,0c-1.01,0-2.01.13-2.97.4C6.11,1.71,3.12,6.51,1.1,15.5-1.07,25.18,0,31.28,4.09,32.7c.56.2,1.15.3,1.75.3,2.81,0,5.06-2.34,6.59-4.25,1.74-2.17,3.77-3.26,10.06-3.26,5.62,0,7.95.76,9.96,3.26,1.26,1.57,2.46,2.67,3.65,3.37,1.58.92,3.17,1.12,4.7.6,2.42-.83,3.81-3.01,4.12-6.49.24-2.67-.13-6.18-1.14-10.72ZM18,15h-3v3c0,.4-.16.78-.44,1.06s-.66.44-1.06.44-.78-.16-1.06-.44c-.28-.28-.44-.66-.44-1.06v-3h-3c-.4,0-.78-.16-1.06-.44-.28-.28-.44-.66-.44-1.06s.16-.78.44-1.06c.28-.28.66-.44,1.06-.44h3v-3c0-.4.16-.78.44-1.06.28-.28.66-.44,1.06-.44s.78.16,1.06.44c.28.28.44.66.44,1.06v3h3c.4,0,.78.16,1.06.44s.44.66.44,1.06-.16.78-.44,1.06c-.28.28-.66.44-1.06.44ZM25.87,15.37c-.37,0-.73-.11-1.04-.32-.31-.21-.55-.5-.69-.84-.14-.34-.18-.72-.11-1.08.07-.36.25-.7.51-.96s.6-.44.96-.51c.36-.07.74-.04,1.08.11.34.14.64.38.84.69.21.31.32.67.32,1.04,0,.5-.2.97-.55,1.33-.35.35-.83.55-1.33.55ZM30,19.5c-.37,0-.73-.11-1.04-.32-.31-.21-.55-.5-.69-.84-.14-.34-.18-.72-.11-1.08.07-.36.25-.7.51-.96s.6-.44.96-.51c.36-.07.74-.03,1.08.11.34.14.64.38.84.69.21.31.31.67.31,1.04,0,.5-.2.97-.55,1.32-.35.35-.83.55-1.32.55ZM30,11.25c-.37,0-.73-.11-1.04-.32-.31-.21-.55-.5-.69-.84-.14-.34-.18-.72-.11-1.08.07-.36.25-.7.51-.96s.6-.44.96-.51c.36-.07.74-.04,1.08.11.34.14.64.38.84.69.21.31.32.67.32,1.04,0,.5-.2.97-.55,1.33-.35.35-.83.55-1.33.55ZM34.12,15.37c-.37,0-.73-.11-1.04-.32-.31-.21-.55-.5-.69-.84-.14-.34-.18-.72-.11-1.08.07-.36.25-.7.51-.96s.6-.44.96-.51c.36-.07.74-.04,1.08.11.34.14.64.38.84.69.21.31.32.67.32,1.04,0,.5-.2.97-.55,1.33-.35.35-.83.55-1.33.55Z"/>
</svg>