<?xml version="1.0" encoding="UTF-8"?>
<svg id="Layer_1" xmlns="http://www.w3.org/2000/svg" version="1.1" viewBox="0 0 725.33 597.33">
  <!-- Generator: Adobe Illustrator 29.8.2, SVG Export Plug-In . SVG Version: 2.1.1 Build 3)  -->
  <defs>
    <style>
      .st0 {
        fill: #1e90ff;
      }
    </style>
  </defs>
  <path class="st0" d="M725.33,161.86v371.48c0,35.35-28.65,64-64,64H64c-35.35-.01-64-28.66-64-64.01V161.86l266.09,225.6c55.72,47.24,137.43,47.24,193.15,0l266.09-225.6h0ZM661.33,0c7.8,0,15.53,1.43,22.83,4.18,10.49,3.99,19.73,10.69,26.79,19.41,3.83,4.69,6.97,9.9,9.34,15.47,2.77,6.57,4.48,13.7,4.91,21.18l.13,3.75v21.33l-321.13,273.92c-22.76,19.42-55.94,20.47-79.89,2.54l-3.18-2.56L0,85.33v-21.33C-.05,39.84,13.55,17.72,35.14,6.87,44.08,2.35,53.97,0,64,0h597.33Z"/>
</svg>