<?xml version="1.0" encoding="UTF-8"?>
<svg id="Layer_1" xmlns="http://www.w3.org/2000/svg" version="1.1" viewBox="0 0 580.81 550.01">
  <!-- Generator: Adobe Illustrator 29.8.2, SVG Export Plug-In . SVG Version: 2.1.1 Build 3)  -->
  <path d="M290.43,0C209.13,0,98.23,1.27,75.73,3.27,50.48,18.42.5,75.77,0,90.67v25c0,31.57,29.57,59.33,56.35,59.33,32.07,0,58.84-26.75,58.84-58.3,0,31.55,26.01,58.3,58.06,58.3s57.32-26.73,57.32-58.3c0,31.55,27.25,58.3,59.57,58.3h.54c32.33,0,59.57-26.73,59.57-58.3,0,31.55,25.25,58.3,57.32,58.3s58.11-26.73,58.11-58.3c0,31.55,26.76,58.3,58.84,58.3,26.77,0,56.3-27.75,56.3-59.33v-25c-.5-14.9-50.48-72.25-75.73-87.4C426.53.5,371.73,0,290.43,0ZM229.2,168.55c-26.33,45.25-92.46,45.79-118.26.29-15.75,27.3-51.4,37.84-66.65,32.67-4.45,47.48-7.52,291.21,24.8,332.08,94.92,22.13,350.45,21.65,442.68,0,37.38-38.1,29-288.06,24.8-332.08-15.25,5.17-50.91-5.37-66.41-32.67-26.07,45.5-92.21,44.96-118.51-.29-8.12,14.75-27.06,34.18-61.23,34.18-25.08.97-48.71-12.55-61.23-34.18h.01ZM175.93,225c20,0,38.25,0,60.25,24.51,36.25-3.75,72.25-3.75,108.5,0,22.25-24.25,40.25-24.27,60.25-24.27,64.5,0,80.02,95.25,103.27,177.25,21,76.25-7.05,78.27-41.8,78.27-51.75-2-80.47-39.5-80.47-77.25-48.25,8-125.27,11-191.02,0,0,37.75-28.72,75.25-80.47,77.25-34.75,0-62.8-2.02-41.8-78.27,23.25-82.5,38.77-177.25,103.27-177.25v-.24h.02ZM290.43,296.92s-42.35,39.06-50,52.69l27.69-1.03v24.17c0,1.45,20.46.2,22.31.2,11.18.43,22.31.83,22.31-.2v-24.17l27.69,1.03c-7.65-13.65-50-52.69-50-52.69Z"/>
</svg>