<?xml version="1.0" encoding="UTF-8"?>
<svg id="Layer_1" xmlns="http://www.w3.org/2000/svg" baseProfile="tiny" version="1.2" viewBox="0 0 800 689.57">
  <!-- Generator: Adobe Illustrator 30.3.0, SVG Export Plug-In . SVG Version: 2.1.3 Build 182)  -->
  <path d="M336.84,0C126.31,0,0,183.88,0,275.83s42.1,160.91,126.31,160.91,126.33,22.97,126.33,91.93c0,91.93,63.15,160.89,147.36,160.89,273.69,0,399.99-160.89,399.99-321.78C799.98,91.95,589.42,0,336.84,0h0ZM284.21,91.95c29.07,0,52.63,25.73,52.63,57.45s-23.57,57.47-52.63,57.47-52.63-25.73-52.63-57.47,23.57-57.45,52.63-57.45ZM452.61,91.95c29.07,0,52.63,25.73,52.63,57.45s-23.57,57.47-52.63,57.47-52.62-25.73-52.62-57.47,23.57-57.45,52.62-57.45ZM621.04,183.88c29.08,0,52.65,25.71,52.65,57.47s-23.57,57.45-52.65,57.45-52.62-25.71-52.62-57.45c-.02-31.74,23.55-57.47,52.62-57.47ZM136.85,229.87c29.07,0,52.62,25.71,52.62,57.44s-23.57,57.47-52.62,57.47-52.63-25.73-52.63-57.47,23.57-57.44,52.63-57.44ZM399.99,459.72c34.88,0,63.15,30.85,63.15,68.98s-28.27,68.94-63.15,68.94-63.15-30.87-63.15-68.94,28.27-68.98,63.15-68.98h0Z" fill="#1e90ff"/>
</svg>