<svg width="47" height="47" viewBox="0 0 47 47" fill="none" xmlns="http://www.w3.org/2000/svg">
<g clip-path="url(#clip0_54644_129)">
<path d="M27.3 28.8V17.8C27.3 17.8 28.5 19.9 33 20C33.2 20 33.4 19.8 33.4 19.6V16.5C33.4 16.3 33.2 16.1 33 16.1C29.5 15.9 27.9 13.2 27.7 10.8C27.5 8.40002 27.5 10.4 27.3 10.4H23.8C23.6 10.4 23.4 10.6 23.4 10.8V28.2C23.4 30.1 22 31.7 20.1 31.8C18.2 31.9 16.2 30 16.4 27.9C16.6 25.8 17.8 25.1 19.4 24.9C21 24.7 20 24.9 20.3 24.9C20.6 24.9 20.8 24.7 20.8 24.5V21.4C20.8 21.2 20.6 21 20.4 21H19C15.6 21.4 12.8 24.1 12.5 27.6C12 32.1 15.5 35.9 19.9 35.9C24.3 35.9 27.4 32.6 27.4 28.4" fill="white"/>
<path d="M36.8 46.8H10.1C4.59998 46.8 0.0999756 42.3 0.0999756 36.8V10.1C0.0999756 4.59998 4.59998 0.0999756 10.1 0.0999756H36.8C42.3 0.0999756 46.8 4.59998 46.8 10.1V36.8C46.8 42.3 42.3 46.8 36.8 46.8ZM10.2 1.99998C5.69998 1.99998 1.99998 5.69998 1.99998 10.2V36.9C1.99998 41.4 5.69998 45.1 10.2 45.1H36.9C41.4 45.1 45.1 41.4 45.1 36.9V10.2C45.1 5.69998 41.4 1.99998 36.9 1.99998H10.2Z" fill="white"/>
</g>
<defs>
<clipPath id="clip0_54644_129">
<rect width="47" height="47" fill="white"/>
</clipPath>
</defs>
</svg>
