<?xml version="1.0" encoding="UTF-8"?>
<svg id="Layer_1" data-name="Layer 1" xmlns="http://www.w3.org/2000/svg" viewBox="0 0 684.41 684.4">
  <defs>
    <style>
      .cls-1 {
        fill: #1e90ff;
      }
    </style>
  </defs>
  <path class="cls-1" d="M341.58,684.38c190,1.88,342.19-155.63,342.81-341.56C686.27,152.82,533.45,1.26,342.83,0,152.2-1.24.64,155.63.02,341.57c-1.88,190,155.63,341.56,341.56,342.81ZM477.83,205.94c33.75,1.87,58.44,25.94,57.19,59.69-1.88,33.75-25.94,58.44-59.69,57.19-33.75-1.87-58.44-25.94-57.19-59.69,1.25-33.75,25.63-58.44,59.69-57.19ZM342.83,591.26c-83.12-.62-157.5-49.06-195.31-129.69-6.56-15.94,1.87-33.75,17.19-40.62,15.94-6.56,33.75,1.88,45.31,18.75,24.69,53.12,76.56,87.81,135,89.06s109.06-33.13,133.44-87.19c8.75-17.81,28.44-24.06,42.5-16.56,17.81,8.75,25.31,24.69,16.56,42.5-33.75,75.31-111.56,125.31-194.69,123.75ZM217.83,205.94c33.75,1.87,58.44,25.94,57.19,59.69-1.87,33.75-25.94,58.44-59.69,57.19-29.38-.62-58.44-25.94-57.19-59.69.62-29.37,25.94-58.44,59.69-57.19Z"/>
</svg>