<svg width="47" height="47" viewBox="0 0 47 47" fill="none" xmlns="http://www.w3.org/2000/svg">
<g clip-path="url(#clip0_54643_89)">
<path d="M31.3 21.7L30.9 24.7C30.9 25.2 30.4 25.6 29.9 25.6H25V38.2C24.5 38.2 24 38.2 23.4 38.2C22.2 38.2 21.1 38.1 19.9 37.9V25.5H16.1C15.8 25.5 15.5 25.2 15.5 24.9V21.1C15.5 20.8 15.8 20.5 16.1 20.5H19.9V14.8C19.9 11.3 22.7 8.5 26.2 8.5H30.6C30.9 8.5 31.2 8.8 31.2 9.1V12.9C31.2 13.2 30.9 13.5 30.6 13.5H27.5C26.1 13.5 25 14.6 25 16V20.4H30.3C30.9 20.4 31.4 20.9 31.3 21.5V21.7Z" fill="white"/>
<path d="M36.8 46.8H10.1C4.60001 46.8 0.100006 42.3 0.100006 36.8V10.1C0.100006 4.59998 4.60001 0.0999756 10.1 0.0999756H36.8C42.3 0.0999756 46.8 4.59998 46.8 10.1V36.8C46.8 42.3 42.3 46.8 36.8 46.8ZM10.2 1.99998C5.70001 1.99998 2.00001 5.69998 2.00001 10.2V36.9C2.00001 41.4 5.70001 45.1 10.2 45.1H36.9C41.4 45.1 45.1 41.4 45.1 36.9V10.2C45.1 5.69998 41.4 1.99998 36.9 1.99998H10.2Z" fill="white"/>
</g>
<defs>
<clipPath id="clip0_54643_89">
<rect width="47" height="47" fill="white"/>
</clipPath>
</defs>
</svg>
