<?xml version="1.0" encoding="UTF-8"?>
<svg id="Layer_1" xmlns="http://www.w3.org/2000/svg" version="1.1" viewBox="0 0 512 512">
  <!-- Generator: Adobe Illustrator 29.8.2, SVG Export Plug-In . SVG Version: 2.1.1 Build 3)  -->
  <defs>
    <style>
      .st0 {
        fill-rule: evenodd;
      }
    </style>
  </defs>
  <g id="Layer_11" data-name="Layer_1" image-rendering="optimizeQuality" shape-rendering="geometricPrecision" text-rendering="geometricPrecision">
    <path class="st0" d="M474.92,0H38.59C17.72,0,0,16.5,0,36.84v438.3c0,20.36,11.63,36.86,32.49,36.86h436.33c20.9,0,43.18-16.5,43.18-36.86V36.84c0-20.34-16.19-36.84-37.08-36.84h0ZM195.04,195.04h68.93v35.14h.76c10.51-18.94,41.54-38.18,79.92-38.18,73.65,0,94.21,39.11,94.21,111.54v135.32h-73.15v-121.98c0-32.43-12.95-60.88-43.23-60.88-36.77,0-54.3,24.89-54.3,65.76v117.1h-73.15v-243.82h0ZM73.14,438.86h73.15v-243.82h-73.15s0,243.82,0,243.82ZM155.43,109.71c0,25.26-20.46,45.71-45.71,45.71s-45.72-20.46-45.72-45.71,20.46-45.72,45.72-45.72,45.71,20.46,45.71,45.72Z"/>
  </g>
</svg>