<svg width="81" height="65" viewBox="0 0 81 65" fill="none" xmlns="http://www.w3.org/2000/svg">
<path d="M32.0178 61.5937V39.0312L37.6178 23.1979C37.9512 22.4722 38.4178 21.8785 39.0178 21.4167C39.6845 20.8889 40.4845 20.625 41.4178 20.625H70.6178C71.5512 20.625 72.3512 20.8889 73.0178 21.4167C73.6845 21.8785 74.1512 22.4722 74.4178 23.1979L80.0178 39.0312V61.5937C80.0178 62.3194 79.7512 62.9462 79.2178 63.4739C78.7512 63.9357 78.1512 64.1666 77.4178 64.1666H74.6178C73.8845 64.1666 73.2512 63.9357 72.7178 63.4739C72.2512 62.9462 72.0178 62.3194 72.0178 61.5937V58.2292H40.0178V61.5937C40.0178 62.3194 39.7512 62.9462 39.2178 63.4739C38.7512 63.9357 38.1512 64.1666 37.4178 64.1666H34.6178C33.8845 64.1666 33.2512 63.9357 32.7178 63.4739C32.2512 62.9462 32.0178 62.3194 32.0178 61.5937ZM40.0178 34.4792H72.0178L69.2178 26.5625H42.8178L40.0178 34.4792ZM44.0178 50.3125C45.1512 50.3125 46.0845 49.9496 46.8178 49.2239C47.6178 48.4323 48.0178 47.4757 48.0178 46.3542C48.0178 45.2326 47.6178 44.309 46.8178 43.5833C46.0845 42.7917 45.1512 42.3958 44.0178 42.3958C42.8845 42.3958 41.9178 42.7917 41.1178 43.5833C40.3845 44.309 40.0178 45.2326 40.0178 46.3542C40.0178 47.4757 40.3845 48.4323 41.1178 49.2239C41.9178 49.9496 42.8845 50.3125 44.0178 50.3125ZM68.0178 50.3125C69.1512 50.3125 70.0845 49.9496 70.8178 49.2239C71.6178 48.4323 72.0178 47.4757 72.0178 46.3542C72.0178 45.2326 71.6178 44.309 70.8178 43.5833C70.0845 42.7917 69.1512 42.3958 68.0178 42.3958C66.8845 42.3958 65.9178 42.7917 65.1178 43.5833C64.3845 44.309 64.0178 45.2326 64.0178 46.3542C64.0178 47.4757 64.3845 48.4323 65.1178 49.2239C65.9178 49.9496 66.8845 50.3125 68.0178 50.3125ZM8.01782 64.1666V60.2083L12.0178 56.25C8.68449 56.25 5.85116 55.0955 3.51782 52.7864C1.18449 50.4774 0.0178223 47.6736 0.0178223 44.375V12.7083C0.0178223 8.35414 1.98449 5.28644 5.91782 3.50519C9.85116 1.72394 16.5512 0.833313 26.0178 0.833313C35.8845 0.833313 42.6845 1.69095 46.4178 3.40623C50.1512 5.12151 52.0178 8.2222 52.0178 12.7083V16.6666H44.0178V12.7083H8.01782V36.4583H28.0178V64.1666H8.01782ZM12.0178 48.3333C13.1512 48.3333 14.0845 47.9705 14.8178 47.2448C15.6178 46.4531 16.0178 45.4965 16.0178 44.375C16.0178 43.2535 15.6178 42.3298 14.8178 41.6041C14.0845 40.8125 13.1512 40.4167 12.0178 40.4167C10.8845 40.4167 9.91782 40.8125 9.11782 41.6041C8.38449 42.3298 8.01782 43.2535 8.01782 44.375C8.01782 45.4965 8.38449 46.4531 9.11782 47.2448C9.91782 47.9705 10.8845 48.3333 12.0178 48.3333ZM38.0178 52.2917H74.0178V40.4167H38.0178V52.2917Z" fill="#254C65"/>
</svg>
