<svg width="70" height="71" viewBox="0 0 70 71" fill="none" xmlns="http://www.w3.org/2000/svg">
<path d="M13.4833 53.0202C16.4583 50.7452 19.7833 48.9515 23.4583 47.639C27.1333 46.3265 30.9833 45.6702 35.0083 45.6702C39.0333 45.6702 42.8833 46.3265 46.5583 47.639C50.2333 48.9515 53.5583 50.7452 56.5333 53.0202C58.575 50.6286 60.1646 47.9161 61.3021 44.8827C62.4396 41.8494 63.0083 38.6119 63.0083 35.1702C63.0083 27.4119 60.2812 20.8056 54.8271 15.3515C49.3729 9.89731 42.7666 7.17023 35.0083 7.17023C27.25 7.17023 20.6437 9.89731 15.1896 15.3515C9.73538 20.8056 7.0083 27.4119 7.0083 35.1702C7.0083 38.6119 7.57705 41.8494 8.71455 44.8827C9.85205 47.9161 11.4416 50.6286 13.4833 53.0202ZM35.0083 38.6702C31.5666 38.6702 28.6646 37.489 26.3021 35.1265C23.9396 32.764 22.7583 29.8619 22.7583 26.4202C22.7583 22.9786 23.9396 20.0765 26.3021 17.714C28.6646 15.3515 31.5666 14.1702 35.0083 14.1702C38.45 14.1702 41.3521 15.3515 43.7146 17.714C46.0771 20.0765 47.2583 22.9786 47.2583 26.4202C47.2583 29.8619 46.0771 32.764 43.7146 35.1265C41.3521 37.489 38.45 38.6702 35.0083 38.6702ZM35.0083 70.1702C30.1666 70.1702 25.6166 69.2515 21.3583 67.414C17.1 65.5765 13.3958 63.0827 10.2458 59.9327C7.0958 56.7827 4.60205 53.0786 2.76455 48.8202C0.927051 44.5619 0.00830078 40.0119 0.00830078 35.1702C0.00830078 30.3286 0.927051 25.7786 2.76455 21.5202C4.60205 17.2619 7.0958 13.5577 10.2458 10.4077C13.3958 7.25773 17.1 4.76398 21.3583 2.92648C25.6166 1.08898 30.1666 0.170227 35.0083 0.170227C39.85 0.170227 44.4 1.08898 48.6583 2.92648C52.9166 4.76398 56.6208 7.25773 59.7708 10.4077C62.9208 13.5577 65.4146 17.2619 67.2521 21.5202C69.0895 25.7786 70.0083 30.3286 70.0083 35.1702C70.0083 40.0119 69.0895 44.5619 67.2521 48.8202C65.4146 53.0786 62.9208 56.7827 59.7708 59.9327C56.6208 63.0827 52.9166 65.5765 48.6583 67.414C44.4 69.2515 39.85 70.1702 35.0083 70.1702Z" fill="#254C65"/>
</svg>
