<?xml version="1.0" encoding="UTF-8"?>
<svg xmlns="http://www.w3.org/2000/svg" viewBox="0 0 437.82 437.82">
  <defs>
    <style>
      .cls-1 {
        fill: #fff;
      }

      .cls-2 {
        fill: #1e90ff;
      }
    </style>
  </defs>
  <g id="Layer_1" data-name="Layer 1">
    <g id="Layer_2" data-name="Layer 2">
      <rect class="cls-2" width="437.82" height="437.82"/>
    </g>
    <g id="Layer_3" data-name="Layer 3">
      <g>
        <path class="cls-1" d="M159.75,140.68c-.3.48-2.84,1.1-3.04,1.59-.12.3-1.5.77-3.4,1.14-.53.11-3.01-.91-3.01-1.23,0-.1.53-.87,1.18-1.71.65-.84,1.93-3.1,2.85-5.01,2.87-5.98,5.52-11.16,7.4-14.48,1.46-2.57,1.73-3.25,1.4-3.43-.43-.24-2.21.22-2.94.75-.5.37-1.08.69-3.13,1.73-1.58.8-2.82,1.84-4.44,2.19-1.43.31-1.08.64-2.58,1.39-2.49,1.24-3.55,2.42-6.17,4.33-2.84,2.06-6.93,6.05-7.57,7.38-.24.49-.64,1.07-.89,1.27-.8.66-2.67,4.64-2.67,5.7,0,1.19.27,1.75,1.42,2.88.82.81,1.48,1.2,7.07,4.21,3.82,2.05,5.05,2.92,8.07,5.68,1.56,1.42,3.61,3.27,4.56,4.1s2.01,1.98,2.35,2.55c.34.57.73,1.04.85,1.04.42,0,1.49,2.59,1.98,3.35,1.09,1.67,1.69,3.3,2.5,4.95.52,1.07.6,5.03.12,6-.66,1.33-2.3,5.2-3.3,5.2-.19,0-.59.27-.89.59-.54.59-3.91,2.34-5.77,3.01-1.29.46-5.02,2.35-6.93,2.67-1.61.27-3.71,1.49-5.4,1.78-3.26.56-11.42,3.69-13.71,4.09-4.02.7-4.56,1.27-7.58,1.92-2.53.54-2.47,1.02-4.6-.21-.86-.5-1.85-1.1-2.19-1.35-.58-.41-2.05-2.32-2.05-2.66,0-.08-.18-.55-.4-1.03-.47-1.02-1.58-5.44-1.58-6.29,0-.32-.13-.8-.28-1.06-.67-1.16-2.98-11.11-2.66-11.46.06-.06.11.03.11.21s.25.32.57.32.57.17.57.38c0,.56,1.2,1.21.98,1.9-.2.62.34.66,1.15.08,1.27-.91,1.92-1.42,2.75-2.15.48-.42.98-.77,1.11-.77s.24-.14.24-.3c0-.43,2.85-2.92,3.25-2.83.37.08,3.18-2.72,3.42-2.72.43,0,1.21-1.3,1.08-1.82-.28-1.14,3.98-2.05,4.98-2.52,1.76-.84,4.83-1.66,6.57-2.52,1.27-.63,2.07-.52,1.23.16-.22.18-.36.57-.3.86.11.57-3.39,4.41-3.73,4.08-.1-.1-.36.16-.58.58-.55,1.04.2.63.2,1.2,0,.47-1.1-.49-.77.34.22.55-.88.81-1.04,1.43-.46,1.81-2.15-.35-2.15,1.29,0,.3-.13.54-.28.54s-.28.19-.28.42-.14.42-.3.42c-.6,0,.52,1.36-.38,1.02-.45-.17-.45.31,0,1.73.07.21-.2.8-.59,1.31-.82,1.06-.88,1.28-.29,1.06.23-.09.43-.02.43.15s-.12.31-.26.31c-1.12,0-2.41,3.93-2.72,4.18-1.48,1.21.83,1.47,4.88.54,7.1-1.62,10.28-3.09,15.68-6.13,2.65-1.49,3.47-2.17,1.18-.97-.74.39-1.44.7-1.57.7-.57,0,.48-1.13,1.7-1.83,3.99-2.28,8-6.11,8-7.65,0-.17-.94-1.23-2.1-2.34-2.07-2-3.65-3.02-8.38-5.39-4.18-2.1-6.25-3.38-8.29-5.14-.49-.42-.99-.77-1.11-.77s-.22-.18-.22-.39c0-.46-1.7-1.7-1.7-2.08,0-.15-.17-.44-.37-.65-.37-.37-.52-.63-2.15-3.73-1.04-1.97-1.27-3.53-1.23-8.42.04-5.4,1.76-7.16,3.04-9.18,3.81-6.01,8.99-10.92,13.88-14.02,2.66-1.69,5.69-3.73,6.06-4.1.46-.45,8.5-4.42,9.24-4.56.27-.05.55-.25.62-.45.45-1.34-8.49,2.45-10.26,2.87-.67.16-.78.13-.52-.14.3-.32,1.65-.86,1.65-1.41,0-.48,2.12-1.59,2.12-1.97s4.67-2.54,4.11-1.65c-.29.46.2,1.16.67.97,1.87-.74,9.2-2.4,11.28-2.56,1.13-.09,2.05-.25,2.05-.38,0-.05-.54-1.54-.35-1.61.3-.12,2.87,2.64,3.21,2.54.34-.09.54.77.99.77.22,0,.39.1.39.22,0,.39,2.38,1.8,2.92,2.33.6.59,1.17,1.07,1.29,1.07.33,0,2.16,2,2.8,3.06.47.77.66,1.81.91,4.97.29,3.55.27,4.16-.16,5.43-1.32,3.96-2.66,6.09-6.63,10.53-2.58,2.89-4.35,5.67-6.79,7.48-.74.55-1.93,2.09-2.86,2.09-.61,0-2.34,1.53-2.86,1.53-.2,0-.51.22-.68.49l.02.02ZM123.13,123.82c0-.3.89-1.28,1.16-1.6-.15.3-1.19,2.49-1.16,1.6ZM125.11,121.25c0,.15-.14.28-.3.28-.42,0,.07-.56.18-.56.07,0,.13.13.13.28h0ZM129.43,115.96c-.75,0,.45-.84.52-.84.35,0-.17.84-.52.84ZM137.52,110.38c-.11,0-.78.47-1.49,1.04-2.51,2.04-4.65,3.41-5.3,3.4-.6,0-.53-.13.67-1.22.74-.67,2.43-1.93,3.76-2.81,1.37-.9,3.66-3.25,2.88-1.24-.18.46-.41.84-.52.84h0ZM138.9,109.55c-1.35,0,1.01-1.1.75-.42-.09.23-.43.42-.75.42ZM140.68,108c0,.46-.45.87-.45.14,0-.29.1-.54.22-.54s.22.18.22.4h0ZM154.95,102.01c.3.01.47-.05.37-.15-.2-.2-1.1.12-.37.15ZM155.23,101.17c.3.01.47-.05.37-.15-.2-.2-1.1.12-.37.15ZM160.61,99.78c.3.01.46-.05.37-.15-.21-.2-1.1.12-.37.15Z"/>
        <path class="cls-1" d="M216.89,181.42c-.39-3.8-.18-18.29.35-23.91.17-1.78.13-2.62-.11-2.62-.58,0-.54.71-1.39.47-.36-.1-1.23.14-1.94.53-1.22.68-5.68,1.9-6.93,1.89-.32,0-.59.16-.59.36s-.2.36-.44.36c-.48,0-5.05,5.16-6.69,7.56-.55.81-1.13,1.47-1.29,1.47-.28,0-1.76,1.62-4.74,5.21-1.9,2.29-3.09,3.32-4.87,5.61-1.98,2.54-1.38,1.12-4.32,4.2-1.61,1.69-2.77,2.65-3.07,2.52-.29-.12-.77.23-1.19.86-1.14,1.72-8.19,5.57-10.34,2.87-.32-.4-.75-.72-.97-.72-.48,0-1.48-2.17-1.48-3.21,0-.42.14-.76.3-.76s.94-1.42,1.72-3.16c1.28-2.84,6.48-12.11,8.2-14.61,1.34-1.94-.52-1.55-3.76-1.62-2.16-.05-4.54-.28-5.28-.51-2.32-.74-4.38-3.59-5.24-7.26-.65-2.75.38-3.72,3.02-2.3,3.73,2.01,4.66,2.03,13.85.27,5.02-.96,5.28-.1,7.75-3.64.78-1.12,3.03-3.46,3.03-4.51,0-.37-.92.52-.53-.14.13-.23.38-.33.54-.23.31.21,5.62-6.18,5.28-6.55-.34-.37-1.09,1.24-1.44.86-.34-.36,1.23-1.78,1.73-1.58.38.16,2.01-1.7,4.48-5.1.61-.84.94-1.53.74-1.53-.32,0,.22-2.25.65-.93.45,1.38,2.28-2.4,2.24-2.52-.08-.22,0-.62.2-.9.26-.4.29-.36.14.15-.29.97.64.39.66-.15.04-1.06.55-2.15,1.18-2.51.36-.21.65-.61.65-.9s.16-.53.35-.53c.52,0,10.68-11.33,13.75-15.34.76-.99,1.69-2.2,2.06-2.68,1.09-1.4-.69-1.85.19-3.21.94-1.43,2.19-1.82,4.14-1.28,1.67.46,1.83.44,3.43-.46,2.05-1.15,5.23-1.33,7.06-.4,3.03,1.55,3.85,2.27,4.12,3.66.18.94.12,1.66-.2,2.32-3.06,6.3-3.78,14.75-5.68,21.89-1.87,7.05-2.8,12.02-4.28,19.39-.15.74-.43,1.55-.62,1.8-.36.48-.94,3.27-1.27,6.13-.3,2.64-.73,1.52-1.01,4.88-.26,2.99-1.24,6.02-1.68,8.39-.13.69-.33,1.42-.45,1.62-.32.53-1.04,6.05-1.26,9.56-.24,3.83-1.14,2.95-1.14,6.21,0,1.1-.16,3.66-.35,5.67-.31,3.24-.27,4.16.37,7.89,1.25,7.27,1.14,8.06-.76,5.35-3.94-5.64-5.85-14.62-6.84-24.22l-.03.04ZM167.54,183c0,.27-.67.97-.67.45,0-.27.67-.97.67-.45ZM177.12,169.07q-.52,1.14.08.39c.08-.1,3.72-4.37,2.82-4.32-.64.04-1.91,1.75-2.9,3.93h0ZM192.85,148.01c4.27-5.33,8.53-11.51,13.24-16.75,1.62-1.8,3.83-5.23,3.38-5.23-1.09,0-10.96,12.95-14.26,16.87-2.01,2.39-7.79,10.11-7.79,10.4,0,.49,1.44.02,2.05-.66,1.42-1.58,1.75-2.59,3.39-4.63h-.01ZM200.55,132.97c0,.31-.25.66-.55.79-.48.2-.49.14-.1-.41.32-.45.65-1.28.65-.38h0ZM218.94,140.92s-4.83,6-5.32,6.77c-.68,1.09-1.71,2.55-2.27,3.24l-1.03,1.26,2.27.18c2.02.16,4.79.06,5.07-.19.19-.16,1.43-11.1,1.28-11.26Z"/>
        <path class="cls-1" d="M306.79,183.96c0,1.42-.62,1.69-1.38,3.78-.49,1.34-1.09,2.88-1.33,3.42-.25.54-.45,1.2-.45,1.48,0,.97-.58,1.21-.74,2.75-.24,2.28-.48,2.77-2.83,1.45-4.41-2.48-5.45-7.91-5.33-15.6.04-2.24.05-4.58.02-5.2-.08-1.97.26-4.08.57-3.55.2.34.26.2.23-.51-.06-1.41.28-2.36.89-2.54.77-.22.95-2.15,1.28-2.99.31-.8,1.44-4.9,1.92-5.51.13-.17.24-.55.24-.84,0-.62,1.64-4.55,1.9-4.55.28,0-.01,1.15-1.32,5.2-2.24,6.96-3.46,11.58-3.45,13.01.02,1.18,2.89-7.01,3.34-8.05.53-1.22.69-1.99.57-2.7-.1-.54-.07-.91.07-.82.49.34,1.21-1.08,2.64-5.2.8-2.31,1.55-4.27,1.67-4.37.25-.2,1.77-4.13,1.77-4.57,0-.16.57-1.65,1.26-3.31,2.5-5.97,3.4-8.82,5.76-15.02.88-2.31,1.6-4.32,1.6-4.46,0-.57-.84.15-1.13.97-.5,1.39-3.47,6.51-5.34,9.2-2.42,3.47-5.03,8.96-6.53,10.86-3.13,3.98-8.55,12.75-11.34,16.21-.74.92-2.29,3.01-3.45,4.65-2.68,3.8-4.33,5.03-7.08,5.25-1.78.14-2.02.08-3.02-.75-1.45-1.22-2.35-2.45-2.37-3.23-.03-.96-2.32-2.82-1.78-3.79.32-.58.26-.87-.47-2.19-1.82-3.3-3.77-7.82-4.37-10.14-.35-1.34-.84-3-1.09-3.68-.43-1.14-.49-1.19-.85-.65-.5.76-3.51,7.78-3.51,8.17,0,.35-2.3,6.46-4.01,10.63-2.81,6.87-5.86,13.18-8.77,18.77-1.33,2.56-.92,1.49-2.39,3.08-1.14,1.23-2.05,1.46-3.67.91-2.15-.73-3.06-1.44-6.13-4.82-5.6-6.16-4.72-8.26-2.36-15.09.22-.63,1.42-1.79,1.3-2.02-.26-.48.18-1.95.59-1.95.82,0,.55-3.28,1.27-2.77.27.19,1.16-.68,1.16-1.14,0-.16-.23-.21-.5-.11-.41.15-.43.12-.08-.15.46-.37.88-.21.88.35,0,.44-2.88,7.15-2.88,7.7,0,.75-1.15,2.78-1.15,3.46,0,.26-.13.48-.29.48s-.29.22-.29.49c0,.75.51.58.73-.24.54-2.07,2.15-4.96,2.15-3.87,0,.38-1.6,5.36-1.98,6.17-.43.91-.4,3.15.06,3.58.29.27.81-.67,2.36-4.27,4.57-10.61,8.84-18.88,14.67-32.1,1.06-2.39,2.25-6.25,3.32-8.13.5-.87,1.82-4.4,2.55-6.2.33-.82.6-1.59.6-1.73,0-.4,1.04-2.91,4.53-10.88l3.32-7.58c-.88-.8-3.05-2.43-3.97-2.03-.99.43-.6-1.93.68-4.11.19-.31,6.33-.76,6.73-.84,1.18-.23,5.05.67,5.54,1.28.35.44,1.22,1.08,2.01,1.47,1.28.64,2.86,3.78,3.31,6.56.98,6.08-.2,14.34-.88,19.33-1.5,10.99-1.98,18.72-1.38,22.08.31,1.74.38,1.86.73,1.3,3.89-6.06,7.43-10.28,9.91-13.56,2.55-3.37,7.94-9.67,11.6-13.56,6.11-6.49,7.25-7.66,9.35-9.59,1.17-1.07,2.82-2.72,3.66-3.66.85-.94,1.65-1.71,1.78-1.71.54,0,.98-.91.48-1.48-.8-.91-.55-2.02.62-2.71.37-.22.65-.69.65-1.11,0-1.29.32-1.47,2.37-1.36,2.35.13,1.7.52,3.74.16,1.23-.21,4.24.58,4.42,1.1.21.61.77.31,1.59,1.16.52.54,1.05.98,1.17.98s.22.2.22.44.26.82.58,1.28c2.84,4.08-1.31,12.03-2.3,14.87-.16.45-.42,1.06-.57,1.37-1.39,2.73-7.96,18-8.78,20.42-1.43,4.19-3.02,8.13-3.64,9.07-.28.43-.52.97-.52,1.21,0,.35-1.73,4.63-1.73,4.91,0,.51-2.02,4.77-2.15,5.3-.71,2.74-3.89,9.91-3.89,9.91,0,1.07-2.88,6.09-2.88,6.81v-.04ZM238.9,168.55c.17,0,.3.15.3.33s-.06.33-.13.33c-.11,0-.6-.65-.18-.65h0ZM242.58,157.63c.14.16-1.02,2.47-1.24,2.47-.07,0,.99-2.75,1.24-2.47ZM243.81,155.46s-.18.08-.41.08c-.35,0-.35-.14.02-.97,1.26-2.87.39.52.39.89ZM245.07,151.79c-.19.56-.4.67-.4.2,0-.3.63-.89.4-.2ZM247.6,146.11c.37,0-1.47,4.88-2.03,4.88,0,0,1.41-4.88,2.03-4.88ZM263.19,106.58c.73-1.12.29,1.04-.05,1.04-.2,0-.36-.09-.36-.21s.18-.49.4-.84h0ZM263.19,108.86c-.19.56-.4.67-.4.2,0-.3.63-.89.4-.2ZM269.42,142.21c-.12,0-.37.39-.56.86-.86,2.14.77,6.35,1.43,8.82.35,1.3.76,2.36.91,2.36,0,0-1.3-12.03-1.78-12.03h0ZM281.36,156.1c-.16.46-.12.5.16.18.2-.22.29-.48.2-.58s-.25.08-.36.4h0ZM285.21,152.16c.01-.21-2.23,2-.85-.19.65-1.03.49-1.37-.2-.41-.67.95-1.82,2.98-1.82,3.22,0,.04,1.52-1.19,1.71-1.19.4,0,1.14-.92,1.15-1.43h.01ZM287.37,147.09c-.23,0-1.22,1.38-1.96,2.74-1.6,2.94,2.25-2.74,1.96-2.74ZM289.18,146.26c-.14-.16-3.67,4.89-3.67,5.25,0,.28,4.01-4.87,3.67-5.25ZM288.31,145.75c-.48.42-.63.69-.39.69.06,0,.29-.26.5-.57.36-.52.35-.53-.11-.12ZM296.44,167.74c-.16.43-.25.48-.26.16-.03-.8.99-2.09.26-.16ZM300.29,155.69c-.19.56-.4.67-.4.2,0-.3.63-.89.4-.2Z"/>
        <path class="cls-1" d="M84.97,245.14s-1.74-1.53-1.94-1.53c-.3,0-.36-.28-.25-1.13.2-1.48,2.36-4.53,4.19-5.91,1.24-.93,3.36-3.01,4.79-3.38.79-.2,2.35-.91,3.23-1.3l-.83-.69c-.63-.52-.69-.66-.27-.54,4.68,1.3,7.94,1.36,12.41,3.41.89.41,1.68.74,1.76.74s.88.33,1.76.73c3.15,1.43,9.71,3.66,12.37,6.21,2.68,2.58,3.42,6.08,2.69,12.78-.7,6.43-1.16,9.32-2.53,15.8-.32,1.51-.58,3.01-.58,3.33s-.33,1.57-.74,2.78c-1.7,5.06-3.04,8.8-3.54,9.88-.29.63-.53,1.4-.53,1.71,0,.85-3.56,7.91-3.79,8.63-.48,1.51-2.89,5.76-3.7,6.52-.39.37-.72.83-.72,1.02s-.51,1-1.13,1.79c-1.38,1.75-1.41,2.32-.31,5.64,2.19,6.63,4.12,9.83,6.96,14.68.92,1.57,3.26,4.94,3.55,5.12.6.37.21.7-.83.7-.8,0-1.52-.28-2.62-1.03-4.96-3.38-9.64-9.18-14-13.93l-1.1-1.2-2.55,2.44c-3.35,3.21-7.23,6.32-9.34,7.51-2.92,1.63-4.22,2.23-4.95,2.26-.39.02-.94.12-1.22.23-.74.29-4.66-.1-6.2-.63-2.89-.99-4.07-1.74-6.45-4.16-3.92-3.97-5.05-5.94-6.24-10.82-.33-1.36-.42-6.45-.15-8.76.37-3.2,2.17-9.69,3.57-12.91.94-2.17,1.74-4.48,1.73-5.05,0-.64,1.66-3.04,1.66-3.69,0-1.51,4.07-7.91,4.96-10.44.53-1.52.68-1.12,1.29-2.3,1.55-3,5.46-9.49,8.55-14.19,1.2-1.83,2.18-3.52,2.18-3.76,0-.43,2.83-4.29,2.83-4.66,0-.47-1.73-1.44-2.56-1.44-.39,0-1.4-.45-1.4-.45h-.01ZM92.4,302.49l1.98-2.55-.24-1.99c-.18-1.45-.08-14.89-.46-16.32-.41-1.55-.96-4.49-1.04-6.16-.03-.64-1.92-2.45-2.37-2.27-1.38.53-7.45,14.85-9.24,18.37-.28.56-.59,2.28-.89,2.82-2.21,3.99-6.28,19.24-5.24,23.39.28,1.13,1,.93,3.6-1,4.94-3.67,10.49-9.86,13.92-14.3h-.02ZM91.24,234.53c-.36,0-.74,1.46-1.25,1.27-.2-.08-1.03.49-1.85,1.25-1.19,1.12-1.48,1.57-1.48,2.3v.91l1.75-1.58c.96-.87,1.92-1.58,2.14-1.58.05,0,1.06-2.55.69-2.55v-.02ZM106.39,272.76c.64-1.27,2.03-6.89,2.44-8.44.77-2.89,1.56-6.93,1.98-10.16.52-3.98.64-8.7.22-8.44-.18.11-.3-.09-.3-.49,0-.58-.15-.68-1.1-.74-1.58-.09-1.9.38-2.14,3.11-.24,2.78-.69,5.24-1.71,9.47-1.36,5.62-2.6,8.65-1.28,3.65,1.2-4.53,2.29-11.17,2.21-13.39-.14-3.76-.55-2.74-2.32,1.08-1.07,2.31-3.54,6.15-4.73,8.36-.37.69-2.51,3.45-2.51,4.13,0,.2-1.6,2.78-2.2,3.54-.78,1.01-3.77,6.74-3.66,7.03.46,1.16,8.98,3.92,8.98,3.95,0,.13.18.23.39.23.53,0,.58.85,1.08.86.2,0,.74.32,1.21.71,2.71,2.23,2.6-2.81,3.44-4.48v.02ZM95.68,233.09c.09-.92.07-.94-.42-.5-.79.71-3.49,1.11-3.49,2.09,0,1.04,1.64.49,2.55.03,1.08-.55,1.29-.79,1.37-1.62h-.01ZM102.46,268.4c.06.29-.01.65-.16.8-.42.42-.02-1.66.16-.8ZM102.98,266.59c.06,0,.11.19.11.43s-.12.43-.27.43c-.38,0,.07-.85.16-.85h0ZM103.64,265.18c0,.14-.55,1.55-.55.85,0-.14.55-1.55.55-.85Z"/>
        <path class="cls-1" d="M118.78,290.21c.92-3.89,1.37-5.14,1.02-2.79-.16,1.07-.21,3.38-.75,3.94-.15.15-.26.98-.26,1.84,0,1.99-.77,3.34-1.3,4.77-.24.67-.38.82-.39.44-.01-.69.45-2.97,1.68-8.2h0ZM121.09,283.1c.12.65-.35,2.22-.77,2.58-.22.19-.41.23-.41.09,0-.43,2.35-7.74,2.46-7.62.48.5-1.44,4.09-1.28,4.95ZM132.62,324.39c-.27-.72-1.97-1.62-3.41-1.79-.1-.01-.72-.49-1.38-1.06-3.42-2.95-6.66-8.78-6.97-12.52-.27-3.25-.19-4.26.59-7.56,2.16-9.2,3.9-13.43,6.9-23.56,1.14-3.83,5.1-12.9,7.61-18.6,1.21-2.74,2.22-4.96,4.32-9.51,1.98-4.28,2.32-5.72,1.34-5.72-.57,0-1.76-2.39-2.26-2.97-1.4-1.62-1.51-3.43-.48-4.72,1.79-2.22,2.4-.42,4.17-.12,2.5.42,3.88.81,4.31,1.22.26.24.74.44,1.07.44.99,0,1.04.58,2.38,1.04,1.46.5,3.91,2.09,3.91,2.53,0,.13.16.24.36.24.46,0,1.74,2.78,1.82,3.95.09,1.34-.48,3.98-1.04,4.82-1.48,2.23-8.21,15.55-8.21,16.24,0,.1-.91,2.32-2.01,4.94-3.65,8.64-3.47,8.16-4.21,11.19-.31,1.28-.76,2.62-.99,2.99-.23.37-.42.86-.42,1.09s-.39,1.65-.87,3.16c-.84,2.65-.98,3.22-1.74,7.28-.52,2.79-.96,2.55-1.2,6-.12,1.77-.94,2.76-.81,4.39.02.31.08,5.42.32,5.42.75,0,4.91-6.03,6.28-7.62,1.83-2.12,7.97-9.94,8.46-9.12.17.28.3.3.43.07.11-.18.06-.32-.11-.32-.8,0,1.68-2.76,2.11-3.24,3.49-3.96,7.74-8.95,10.9-12.8,4.77-5.82,10.93-12.43,18.08-19.41,4.95-4.82,4.76-4.63,6.13-6.59.56-.81.94-1.19.85-.85-.47,1.69.18,1.68,1.28-.11l1.07-1.75c-.38-.79-1.07-2.32-1.54-2.73-.43-.37-.56-2.03-.16-2.03.26,0,4.01-5,4.52-6.03.17-.34.26-1.36.21-2.27-.09-1.59-.07-1.66.6-1.66,1.43,0,1.82.61,4,.71,3.76.17,8.97,3.76,9.3,7.31.34,3.62-.03,5.75-2.81,11.61-1.18,2.48-2.43,6.15-3,6.15-.14,0-.47.49-.73,1.1-1.86,4.32-1.93,3.28-4.54,8.28-1.22,2.34-2.89,5.45-3.72,6.91-3.42,6.06-5.72,11.96-8.74,18.72-2.9,6.51-5.27,16.69-6.3,24.98-.2,1.6-.64,1.07-.65,2.65,0,.61-.24,1.36-.53,1.73-.55.69-2.01,1.23-2.01.75,0,0-2.46-.47-2.55-.49-.86-.2-6.6-5.62-8.08-7.63-.95-1.29-1.55-2.88-1.26-3.36.29-.49,1.1,1.75,1.53,1.75.86,0,1.39,2.98,2.17,2.48.14-.09.19-.52.12-.96-1.7-10.36,2.36-22.16,5.18-30.09.69-1.93,1.44-3.89,1.67-4.34.48-.97.38-1.68-.15-1.05-1.47,1.74-4.32,6.29-5.86,8.3-2,2.6-4.32,7.07-6.69,9.88-5.32,6.31-11.32,14.73-15.56,19-.88.89-2.18,2.54-2.87,3.66-1.2,1.94-3.2,4.79-6.28,2.77-1.35-.88-3.38-1.88-3.85-3.15v-.02ZM123.73,274.24c-.1,0-.09-.29.02-.64,1.51-4.94.87.64-.02.64ZM125.57,269.4c0,.14-.55.88-.55.88,0-.14.55-.88.55-.88ZM127.6,264.65c-.28.29-.31.25-.16-.16.25-.68.61-.3.16.16ZM151.64,296.5c-.16,0-.3.13-.3.29s.06.29.12.29c.1,0,.59-.59.18-.59h0Z"/>
        <path class="cls-1" d="M189.02,322.53c-.26-2.43-.59-1.6.03-4.16.44-1.82.45-2.11.04-3.64-.54-2.03-.68-1.9.95-2.49,1.18-.43,2.66.02,2.69,1,.06,1.68,2.47,3.7,4.42,3.7,1.13,0,6.81-1.36,7.56-1.81.49-.3,1.07-2.15,1.05-3.36,0-.89-.08-.94-1.38-1.03-1.72-.12-1.64-.78.11-.9,1.56-.11,2.38-1.11,2.64-3.19.33-2.67.38-2.87.84-3.44.25-.31.46-.74.46-.95,0-.66,1.43-6.08,1.91-7.24.8-1.94.27-2.06,1.36-4.38.54-1.15.98-2.19.98-2.32,0-.11.67-1.47.95-.66.21.61-.48.68-.27,1.28.18.52-.46.7-.24,1.09.26.47-.47,1.82-.55,2.55-.14,1.17-.47,2.74-1.12,5.27-.79,3.08-.77,3.32.12,1.26,1.14-2.66,1.32-2.18,2.25-4.86,3.92-11.26,11.29-27.99,15.63-36.7,3.04-6.1.34-2.76-2.74-2.44-1.66.18-3.83.6-5.31-.17-1.95-1.01-5.01-4.57-5.03-6.82,0-.22-.14-.39-.31-.39-.4,0,.33-7.96.56-8.26.57-.77,1.61-.63,2.22.3.44.67.75.8,1.79.78,2.33-.06,4.42-.23,4.68-.39.37-.22,8.24-.1,11.3.18,3.45.31,13.87,1.52,17.55,1.32,5.28-.28,1.79.15,1.23,1.52-.3.73-3.54,3.09-3.92,3.63-.08.11-.63.31-1.23.43-1.39.28-4.26,2.23-5.69,2.48-.61.11-1.27.37-1.47.59-.37.42-.74,2.84-.69,4.53.03,1.22-.94,5.4-1.71,7.31-2.52,6.29-6.14,13.84-9.96,22.4-1.33,2.98-1.59,2.87-3.01,6.37-2.51,6.21-4.36,10.26-5.07,11.1-1.09,1.29-1.87,4.26-2.54,6.08-.46,1.24-.52,1.69-.25,1.93.73.66,12.32,1.17,13.42,1.34,1.12.17,3.19.26,4.6.19,2.57-.12,2.92,0,2.13.72-.23.21-.42.57-.42.79,0,.41-.92.72-.72,1.06.17.3-2.08,3.02-2.51,3.11-.84.18-2.6,2.31-3.41,2.69-.47.22-1.17.77-1.56,1.22s-.82.83-.96.83-.65.33-1.13.73c-1.18.97-3.71,2-5.14,2.75-.63.33-1.43.6-1.77.6-.96,0-7.71,1.85-8.54,2.03-.54.12-2.26.71-3.82,1.32-5,1.95-11.07,3.11-13.22,2.51-4.67-1.29-7.23-4.42-7.76-9.35l-.02-.04ZM210.42,302.05c-.13.34-.24.84-.24,1.1,0,.3.09.24.24-.16.13-.34.24-.84.24-1.1,0-.3-.09-.24-.24.16ZM213.57,286.32c-.28.31-.31.27-.16-.18.25-.73.61-.32.16.18ZM219.48,312.24c-.47,0-.85.14-.85.31s.38.31.85.31.85-.14.85-.31-.38-.31-.85-.31ZM225.06,241.19c-1.37.87,3.23.55,3.57.54.77-.02-2.58-1.17-3.57-.54Z"/>
        <path class="cls-1" d="M290.74,278.36c-.3.48-2.84,1.1-3.04,1.59-.12.3-1.5.77-3.4,1.14-.53.1-3.01-.91-3.01-1.23,0-.1.53-.87,1.18-1.71s1.93-3.1,2.85-5.01c2.87-5.98,5.52-11.16,7.4-14.48,1.46-2.57,1.73-3.25,1.4-3.43-.43-.24-2.21.22-2.94.75-.5.37-1.08.69-3.13,1.73-1.58.8-2.82,1.84-4.44,2.19-1.43.31-1.08.64-2.58,1.39-2.49,1.24-3.55,2.42-6.17,4.33-2.84,2.06-6.93,6.05-7.57,7.38-.24.49-.64,1.07-.89,1.27-.8.66-2.67,4.64-2.67,5.7,0,1.19.27,1.75,1.42,2.88.82.81,1.48,1.2,7.07,4.21,3.82,2.05,5.05,2.92,8.07,5.68,1.56,1.42,3.61,3.27,4.56,4.1.95.83,2.01,1.98,2.35,2.55.34.57.73,1.04.85,1.04.42,0,1.49,2.59,1.98,3.35,1.09,1.67,1.69,3.3,2.5,4.95.52,1.07.6,5.03.12,6-.66,1.33-2.3,5.2-3.3,5.2-.19,0-.59.27-.89.59-.54.59-3.91,2.34-5.77,3.01-1.29.46-5.02,2.35-6.93,2.67-1.61.27-3.71,1.49-5.4,1.78-3.26.56-11.42,3.69-13.71,4.09-4.02.7-4.56,1.27-7.58,1.92-2.53.54-2.47,1.02-4.6-.21-.86-.5-1.85-1.1-2.19-1.35-.58-.41-2.05-2.32-2.05-2.66,0-.08-.18-.55-.4-1.03-.47-1.02-1.58-5.44-1.58-6.29,0-.32-.13-.8-.28-1.06-.67-1.16-2.98-11.11-2.66-11.46.06-.06.11.03.11.21s.25.32.57.32.57.17.57.38c0,.56,1.2,1.21.98,1.9-.2.62.34.66,1.15.08,1.27-.91,1.92-1.42,2.75-2.15.48-.42.98-.77,1.11-.77s.24-.14.24-.3c0-.43,2.85-2.92,3.25-2.83.37.08,3.18-2.72,3.42-2.72.43,0,1.21-1.31,1.08-1.82-.28-1.14,3.98-2.05,4.98-2.52,1.76-.84,4.83-1.66,6.57-2.52,1.27-.63,2.07-.52,1.23.16-.22.18-.36.57-.3.86.11.57-3.39,4.41-3.73,4.08-.1-.1-.36.16-.58.58-.55,1.04.2.63.2,1.2,0,.47-1.1-.49-.77.34.22.55-.88.81-1.04,1.43-.46,1.81-2.15-.35-2.15,1.29,0,.3-.13.54-.28.54s-.28.19-.28.42-.14.42-.3.42c-.6,0,.52,1.36-.38,1.02-.45-.17-.45.31,0,1.73.07.21-.2.8-.59,1.31-.82,1.06-.88,1.28-.29,1.06.23-.09.43-.02.43.15s-.12.31-.26.31c-1.12,0-2.41,3.93-2.72,4.18-1.48,1.21.83,1.47,4.88.54,7.1-1.62,10.28-3.09,15.68-6.13,2.65-1.49,3.47-2.17,1.18-.97-.74.39-1.44.7-1.57.7-.57,0,.48-1.13,1.7-1.83,3.99-2.28,8-6.11,8-7.65,0-.17-.94-1.23-2.1-2.34-2.07-2-3.65-3.02-8.38-5.39-4.18-2.1-6.25-3.38-8.29-5.14-.49-.42-.99-.77-1.11-.77s-.22-.18-.22-.39c0-.46-1.7-1.7-1.7-2.08,0-.15-.17-.44-.37-.65-.37-.37-.52-.63-2.15-3.73-1.04-1.97-1.27-3.53-1.23-8.42.04-5.4,1.76-7.16,3.04-9.18,3.81-6.01,8.99-10.92,13.88-14.02,2.66-1.69,5.69-3.73,6.06-4.1.46-.45,8.5-4.42,9.24-4.56.27-.05.55-.25.62-.45.45-1.34-8.49,2.45-10.26,2.87-.67.16-.78.13-.52-.14.3-.32,1.65-.86,1.65-1.41,0-.48,2.12-1.59,2.12-1.97s4.67-2.54,4.11-1.65c-.29.46.2,1.16.67.97,1.87-.74,9.2-2.4,11.28-2.56,1.13-.09,2.05-.25,2.05-.38,0-.05-.54-1.54-.35-1.61.3-.12,2.87,2.64,3.21,2.54.34-.09.54.77.99.77.22,0,.39.1.39.22,0,.39,2.38,1.8,2.92,2.33.6.59,1.17,1.07,1.29,1.07.33,0,2.16,2,2.8,3.06.47.77.66,1.81.91,4.97.29,3.55.27,4.16-.16,5.43-1.32,3.96-2.66,6.09-6.63,10.53-2.58,2.89-4.35,5.67-6.79,7.48-.74.55-1.93,2.09-2.86,2.09-.61,0-2.34,1.53-2.86,1.53-.2,0-.51.22-.68.49l.02.02ZM254.13,261.5c0-.3.89-1.28,1.16-1.6-.15.3-1.19,2.49-1.16,1.6ZM256.11,258.93c0,.15-.14.28-.3.28-.42,0,.07-.56.18-.56.07,0,.13.13.13.28h0ZM260.43,253.64c-.75,0,.45-.84.52-.84.35,0-.17.84-.52.84ZM268.51,248.07c-.11,0-.78.47-1.49,1.04-2.51,2.04-4.65,3.41-5.3,3.4-.6,0-.53-.13.67-1.22.74-.67,2.43-1.93,3.76-2.81,1.37-.9,3.66-3.25,2.88-1.24-.18.46-.41.84-.52.84h0ZM269.9,247.23c-1.35,0,1.01-1.1.75-.42-.09.23-.43.42-.75.42ZM271.67,245.68c0,.46-.45.87-.45.14,0-.29.1-.54.22-.54s.22.18.22.4h.01ZM285.94,239.69c.3,0,.47-.05.37-.15-.2-.2-1.1.12-.37.15ZM286.22,238.85c.3,0,.47-.05.37-.15-.2-.2-1.1.12-.37.15ZM291.6,237.46c.3,0,.46-.05.37-.15-.21-.2-1.1.12-.37.15Z"/>
        <path class="cls-1" d="M295.84,330.68c-2.45-4.68-2.24-3.87-2.22-8.34.02-3.6.1-4.31.74-6.12.8-2.27,2.15-5.31,2.35-5.31.27,0-.24,2.11-.98,4.07-.96,2.55-1.54,5.17-1.29,5.87.36,1.03.77-1.18.7.87-.12,3.85.33,4.28,1.31,1.25,2.56-7.89,4.41-9.02,7.87-16.24,3.2-6.67,4.04-7.97,6.26-12.52,4.18-8.59,9.64-17.31,14.44-25.64,1.25-2.17,8.07-12.8,8.07-14.24,0-.72-27.99,3.92-29.19,2.59-.23-.25-.85-.57-1.39-.7-1.27-.31-4.35-3.75-5.1-5.7-.66-1.71-1.49-5.94-1.24-6.37.1-.17.24-.97.32-1.78.14-1.45,1.22-4.24,1.79-4.63.16-.11.22-.33.13-.49-.37-.66,1.24-.23,1.85.49.37.43.87.79,1.11.79.51,0,2.12,2.65,1.88,3.08-.31.56.58.91,2.1.81,4.85-.3,5.22-.6,8.63-.93,1.09-.11,2.75-.33,3.68-.49,1.79-.32,12.17-.86,17.69-.93,1.79-.02,3.46-.1,3.71-.17.66-.19.36-1.69-.34-1.69-.84,0,0-1.82-.54-2.19-.56-.38,2.02-.64,2.32-.43,1.23.84,28.86.2,39.57,1.23,1.01.1,2.72.02,3.79-.17s2.01-.27,2.09-.19c.02.02-1.09,1.72-1.13,2.32-.07,1.07-1.38,2.87-2.11,2.87-.2,0-.49.27-.65.61-.32.67-1.19,1.09-2.27,1.11-.47,0-.7.18-.68.51.04.59-2.44,1.85-2.44,2.23,0,.35-2.34,1.62-2.81,2.09-.58.59-1.28.98-1.73.98-1.17,0-1.29.87-2.62,1.1-.65.12-1.48.42-1.85.68-.46.32-2.09.56-5.24.78-4.39.3-4.16.74-6.84.83-1.63.05-6.71.68-6.97.86-.18.12-2.7,6.22-3.62,7.81-2.35,4.05-4.3,7.83-7.11,11.98-3.39,5.01-5.15,8.56-9.7,16.05-1.34,2.21-4.94,9.16-6.27,11.28-.76,1.21-1.99,4.11-2.93,4.88-.46.38-4.97,9.93-6.83,12.97-1.34,2.19-3.79,7.5-5.11,9.71-1.1,1.83-2.69,5.39-2.98,6.67-.21.94-1.43,1.41-2.14,1.8-.3.16-.88-.03-1.7-.55-2.02-1.31-2.68-2.11-4.39-5.37v.02Z"/>
      </g>
    </g>
  </g>
  <g id="Layer_3-2" data-name="Layer 3">
    <rect class="cls-2" x="32" y="54.83" width="368" height="354"/>
  </g>
  <g id="Layer_2-2" data-name="Layer 2">
    <g>
      <path class="cls-1" d="M159.94,70.25v22.05c-.7-.2-1.57-.35-2.62-.45-1.05-.1-2.43-.15-4.12-.15-1.9,0-3.65.13-5.25.38-1.6.25-3.3.73-5.1,1.42-6.6,2.8-9.9,7.2-9.9,13.2,0,4.8,4.9,10.3,14.7,16.5,6.6,4.1,11.5,8,14.7,11.7,5,5.8,7.5,13.4,7.5,22.8,0,8-1.85,15-5.54,21-4.09,6.6-9.72,10.5-16.91,11.7-2.1.4-4.16.65-6.21.75-2.04.1-4.46.15-7.25.15-4.49,0-9.28-.25-14.36-.75-1.7-.1-3.79-.35-6.28-.75v-26.1c3.39,1.4,6.18,2.4,8.37,3,6.57,2,12.35,3,17.33,3h3.29c.7-.2,1.19-.3,1.49-.3,3.09-.5,5.45-2.15,7.1-4.95,1.64-2.8,2.47-6.2,2.47-10.2,0-4.3-1.05-8.5-3.15-12.6-2.1-4.1-5.15-7.25-9.15-9.45-10-5.5-16.7-9.85-20.1-13.05-5.1-4.7-7.65-10.15-7.65-16.35,0-1.6.15-3.4.45-5.4,1.2-6.8,3.65-12.3,7.35-16.5,3.3-3.8,7.85-6.9,13.65-9.3,2-.8,4.2-1.37,6.6-1.73,2.4-.35,5-.52,7.8-.52,2.5,0,4.6.1,6.3.3,1.7.2,3.2.4,4.5.6Z"/>
      <path class="cls-1" d="M189.2,189.8h-15.17l7.35-119.85h43.05l12.15,120.45h-15.68s-5.72-70.2-5.72-70.2l-22.98.6-3,69ZM213.11,89.16l-18.8.45-.9,17.1,20.74-1.19-1.05-16.35Z"/>
      <path class="cls-1" d="M244.08,190.1l13.8-120.15h12.9l10.35,41.85,10.35-41.4h13.5l16.5,119.7h-21.75l-7.35-77.4-10.5,28.5-11.55-28.5-8.14,77.4h-18.12Z"/>
      <path class="cls-1" d="M113.84,344.9l10.8,23.4h-18s-6.74-15.3-6.74-15.3c-1.6.4-3.45.6-5.55.6-6.8,0-12.25-1.92-16.35-5.78-4.1-3.85-6.55-9.42-7.35-16.72-.3-2.8-.5-7.45-.6-13.95-.1-6.5-.15-10.4-.15-11.7,0-8.1.05-15.62.15-22.58.1-6.95.2-13.67.3-20.17,0-10.8,2.12-18.95,6.38-24.45,4.25-5.5,11.03-8.25,20.33-8.25,8.8,0,15.2,3.1,19.2,9.3,3.4,5.3,5.1,12.9,5.1,22.8,0,9.1.08,20.35.23,33.75.15,13.4.27,24.05.38,31.95,0,3.7-.85,7.1-2.55,10.2-1.1,2-2.95,4.3-5.55,6.9ZM84.59,273.5c0,10.3.02,19.73.08,28.28.05,8.55.23,14.73.52,18.53,0,4.4,1,8,3,10.8,2,2.8,4.5,4.2,7.5,4.2,3.2,0,6.02-1.47,8.48-4.43,2.45-2.95,3.67-7.02,3.67-12.22,0-3.4-.15-11.15-.45-23.25-.3-12.1-.45-19.95-.45-23.55,0-6.1-.75-10.9-2.25-14.4-1.8-4.2-4.6-6.3-8.4-6.3s-6.7,2.05-8.7,6.15c-2,4.1-3,9.5-3,16.2Z"/>
      <path class="cls-1" d="M150.29,231.65c.1,5.98.25,15.48.45,28.49.2,13.01.32,22.83.38,29.46.05,6.63.08,14.68.08,24.16,0,7.78.95,13.16,2.85,16.15,1.9,2.99,5.45,4.49,10.65,4.49,4.9,0,8.15-1.65,9.75-4.94,1.3-2.7,1.95-7.94,1.95-15.73,0-.3-.05-5.74-.15-16.33-.1-10.58-.25-22.64-.45-36.17-.2-13.53-.3-23.29-.3-29.28h16.65c.1,5.99.23,15.06.38,27.19s.27,22.32.38,30.56c.1,8.24.15,18.5.15,30.79,0,11.49-2.4,19.68-7.2,24.57-4.8,4.89-12.45,7.34-22.95,7.34s-17.55-2.42-22.05-7.26c-4.5-4.84-6.75-12.15-6.75-21.92l-.45-91.57h16.65Z"/>
      <path class="cls-1" d="M218.84,231.95l.9,120.15h-15.9l-.9-120.15h15.9Z"/>
      <path class="cls-1" d="M277.78,232.25v22.05c-.7-.2-1.58-.35-2.62-.45-1.05-.1-2.43-.15-4.12-.15-1.9,0-3.65.13-5.25.38-1.6.25-3.3.73-5.1,1.42-6.6,2.8-9.9,7.2-9.9,13.2,0,4.8,4.9,10.3,14.7,16.5,6.6,4.1,11.5,8,14.7,11.7,5,5.8,7.5,13.4,7.5,22.8,0,8-1.85,15-5.54,21-4.09,6.6-9.72,10.5-16.91,11.7-2.09.4-4.16.65-6.21.75-2.04.1-4.46.15-7.25.15-4.49,0-9.28-.25-14.36-.75-1.7-.1-3.79-.35-6.28-.75v-26.1c3.39,1.4,6.18,2.4,8.37,3,6.57,2,12.35,3,17.33,3h3.29c.7-.2,1.19-.3,1.49-.3,3.09-.5,5.45-2.15,7.1-4.95,1.64-2.8,2.46-6.2,2.46-10.2,0-4.3-1.05-8.5-3.15-12.6-2.1-4.1-5.15-7.25-9.15-9.45-10-5.5-16.7-9.85-20.1-13.05-5.1-4.7-7.65-10.15-7.65-16.35,0-1.6.15-3.4.45-5.4,1.2-6.8,3.65-12.3,7.35-16.5,3.3-3.8,7.85-6.9,13.65-9.3,2-.8,4.2-1.37,6.6-1.73,2.4-.35,5-.52,7.8-.52,2.5,0,4.6.1,6.3.3,1.7.2,3.2.4,4.5.6Z"/>
      <path class="cls-1" d="M323.68,255.95l-30.15-.15v-23.55h74.1l.3,23.7-30.45-.15-.6,96.6h-13.83l.63-96.45Z"/>
    </g>
  </g>
</svg>