<?xml version="1.0" encoding="UTF-8"?>
<svg id="Layer_1" data-name="Layer 1" xmlns="http://www.w3.org/2000/svg" xmlns:xlink="http://www.w3.org/1999/xlink" viewBox="0 0 1024 1024">
  <defs>
    <style>
      .cls-1 {
        fill: #008cff;
      }

      .cls-2 {
        fill: #fff;
      }

      .cls-3 {
        fill: none;
      }

      .cls-4 {
        clip-path: url(#clippath);
      }
    </style>
    <clipPath id="clippath">
      <rect class="cls-3" width="1024" height="1024"/>
    </clipPath>
  </defs>
  <rect class="cls-1" width="1024" height="1024"/>
  <polygon points="451.83 235.21 409.04 212.87 398.8 228.08 377.43 212.87 298.75 235.21 233.56 311.79 239.27 353.4 204.53 418.64 227.8 497.2 200.5 482.38 120.2 524.17 131.68 634.37 109.34 646.59 86.06 745.99 145.46 803.95 261.43 803.95 282.24 822.48 353.27 789.38 409.04 822.48 453.86 796.18 491.99 830.25 532.07 804.92 715.45 812.69 730.14 791.32 746.54 807.83 867.95 807.83 912.63 740.81 883.77 669.9 938.94 627.17 938.94 557.52 866.01 509.94 840.6 520.78 811.7 502.32 829.18 409.89 816.63 399.21 848.69 242.83 792.26 206.22 686.14 263.17 577.65 193.75 545.47 221.76 482.15 202.49 451.83 235.21"/>
  <polygon class="cls-2" points="661.6 571.63 753.6 648.59 769.94 637.28 746.48 595.41 776.44 602.36 790.36 702.77 778.27 704.22 769.19 748.98 781.72 761.31 848.79 761.44 858.39 746.21 815.06 607.85 852.28 612.36 836.49 640.86 846.4 645.31 900.95 604.09 901.34 592.28 869.96 570.57 808.71 582.74 800.84 545.33 767.32 530.5 773.53 574.31 706.76 536.28 668.58 544.23 661.6 571.63"/>
  <polyline class="cls-2" points="522.2 612.42 515.81 653.6 507.95 654.1 509.91 689.32 526.13 688.82 532.02 740.42 491.85 772.17 463.35 741.41 451.07 675.92 468.19 600.16"/>
  <polygon class="cls-2" points="503.63 588.82 528.18 568.54 491.71 527.91 475.04 581.95 503.63 588.82"/>
  <g class="cls-4">
    <path class="cls-2" d="M319.42,722.91c-1.47,1.49-21.18-137.28-21.18-137.28l51.15-55.08,31.93,47.64-37.64,105.17,11.65,14.39,32.9-9.43-2.98-72.36,15.23-36.78,57.97-53.08,9.33,10.42-13.26,67.47-13.27,2.98-15.72,91.78,11.79,4.46-9.83,49.11-28.99,16.87-28.34-19.19,1.88-17.59"/>
    <polygon class="cls-2" points="601.18 471.28 661.18 489.14 673.95 475.74 654.79 376.52 681.62 416.99 691.32 416.8 718.17 373.54 697.53 473.35 712.27 489.14 767.79 479.71 777.61 430.1 761.89 417.7 777.61 326.91 787.93 324.93 801.69 258.94 791.86 252.99 720.62 306.07 685.74 379 658.23 320.46 578.15 252.5 567.84 265.39 587.49 332.37 595.84 330.88 610.92 418.02 603.26 422.91 601.18 471.28"/>
    <path class="cls-2" d="M542.91,383.23l16.62-6.37-5.16-23.03-16.37,4.59-11.3-45.15,9.33-3.47-4.91-48.62-31.93-13.39-14.32,16.37,5.96,21.83-20.63,7.44-26.32,88.66-11.04,41.97-13.87,7.26-15.47,46.4,45.58,13.65,31.44-19.84-.98-36.22-10.32-6.95,3.44-18.36,42.74-15.38,2.46,20.84-14.74,3.97,2.46,54.07,33.9,16.87,50.11-43.66.98-17.86-47.65-45.64ZM483.47,374.8l15.23-53.08,11.3,44.15-26.53,8.93Z"/>
    <polyline class="cls-2" points="368.13 337.81 349.18 300.75 318.89 350.32 393.36 381.42 400.61 414.62 363.1 489.78 290.78 478.36 265 426.95 249.19 431.08 245.76 420.08 260.88 386.4 279.44 380.9 327.55 397.4 335.11 412.52 315.86 415.96 318.89 433.33 341.59 435.67 360.06 407.4 357.31 395.56 285.51 357.84 279.2 323.39 316.19 272.18 354.9 262.77 404.4 291.74 414.75 276.97 424.29 282.44 442.85 310.79 432.63 338.12 401.95 358.05"/>
    <polygon class="cls-2" points="562.19 765.28 543.52 734.52 569.41 698.45 631.15 704.69 641.58 727.15 674.36 728.64 686.64 708.23 677.91 672.93 666.61 668.47 587.14 683.49 555.2 665.07 534.08 605.53 548.33 568.33 600.29 544.05 594.02 527.15 638.23 522.75 657.39 542.53 637.74 617.94 626.93 622.9 617.6 600.08 576.33 594.62 599.91 647.7 675.45 634.8 706.89 647.7 738.26 718.64 693.13 769.25 562.19 765.28"/>
    <path class="cls-2" d="M278.11,552.45l-21.29-6.25-13.79,12.14-62.65-29.84-24.73,13.52,3.86,52.54,10.34,4.95-16.23,85.83-19.14,10.42-7.81,42.63,17.7,17.36,49.02,1,7.39-12.38,58.94,5.96,33.72,34.36,33.91-14.54,3.46-19.73-26.3-18.44-26.4-179.55ZM227.27,709.15l-26.49-2.96,10.33-93.82,40.78,12.88,6.93,78.97-29.95-22.8-14.37,11.44,12.77,16.29Z"/>
  </g>
</svg>