<?xml version="1.0" encoding="UTF-8"?>
<svg id="Layer_13" data-name="Layer 13" xmlns="http://www.w3.org/2000/svg" viewBox="0 0 1035.56 1040.76">
  <defs>
    <style>
      .cls-1 {
        fill: #008cff;
      }

      .cls-2 {
        fill: #fff;
      }
    </style>
  </defs>
  <polygon class="cls-1" points="1035.56 1040.76 0 1036.66 0 0 1035.56 4.1 1035.56 1040.76"/>
  <g>
    <polygon points="455.92 244.5 413.14 222.16 402.89 237.37 381.52 222.16 302.84 244.5 237.65 321.08 243.36 362.69 208.63 427.93 231.89 506.5 204.59 491.68 118.29 527.46 135.78 643.67 113.44 655.89 89.15 755.29 148.55 813.24 264.52 813.24 286.33 831.78 357.37 798.67 413.14 831.78 457.95 805.47 496.08 839.55 536.16 814.21 719.54 821.98 734.23 800.62 750.63 817.13 872.04 817.13 916.72 750.11 887.87 679.2 943.03 636.46 943.03 566.81 870.1 519.24 844.69 530.07 815.79 511.62 833.27 419.19 820.73 408.5 852.78 252.12 796.35 215.52 690.23 272.46 581.75 203.04 549.56 231.06 486.24 211.78 455.92 244.5"/>
    <polygon class="cls-2" points="664.69 580.92 757.7 657.88 774.04 646.58 750.57 604.71 780.53 611.66 794.45 712.07 782.36 713.52 773.28 758.28 785.81 770.6 852.88 770.74 862.49 755.51 819.15 617.15 856.38 621.65 840.58 650.16 850.49 654.61 905.04 613.39 905.43 601.58 874.05 579.86 812.8 592.04 804.93 554.63 771.41 539.8 777.62 583.6 710.85 545.58 671.68 553.53 664.69 580.92"/>
    <polyline class="cls-2" points="526.29 621.72 519.9 662.89 512.04 663.39 514.01 698.61 530.22 698.12 536.11 749.71 495.94 781.46 467.44 750.7 455.16 685.22 472.29 609.46"/>
    <polygon class="cls-2" points="507.72 598.12 532.27 577.84 495.81 537.2 479.13 591.24 507.72 598.12"/>
    <path class="cls-2" d="M321.51,732.2c-1.47,1.49-21.18-136.28-21.18-136.28l53.15-53.08,31.93,45.64-44.64,105.17,15.65,13.39,33.9-9.43-.98-72.36,15.23-36.78,57.97-53.08,9.33,10.42-13.26,67.47-13.26,2.98-15.72,91.78,11.79,4.46-9.83,49.11-28.99,16.87-28.34-19.19,1.88-17.59"/>
    <path class="cls-2" d="M304.6,739.29l-21.13-138.91-103.17-64.99-24.56,9.92,7.86,58.54,9.33,5.95-15.23,84.83-20.14,10.42-10.81,46.63,16.7,17.36h55.02l6.39-15.38,59.94,4.96,15.72,18.36,30.88-15.81,4.49-14.46-11.3-7.44ZM233.36,720.44l-28.49-4.96,9.33-86.82,40.78,15.88,3.93,66.97-30.95-24.81-7.37,7.44,12.77,26.29Z"/>
    <polygon class="cls-2" points="605.27 480.57 665.27 498.43 678.05 485.04 658.89 385.82 685.71 426.28 695.41 426.09 722.26 382.84 701.62 482.64 716.36 498.43 771.88 489.01 781.71 439.4 765.98 426.99 781.71 336.21 792.02 334.22 805.78 268.24 795.95 262.29 724.72 315.37 689.84 388.3 662.32 329.76 582.25 261.79 571.93 274.69 591.58 341.66 599.93 340.17 615.01 427.31 607.35 432.21 605.27 480.57"/>
    <path class="cls-2" d="M547,392.53l16.62-6.37-5.16-23.03-16.37,4.59-11.3-45.15,9.33-3.47-4.91-48.62-31.93-13.39-14.32,16.37,5.96,21.83-20.63,7.44-26.32,88.66-11.04,41.97-13.87,7.26-15.47,46.4,45.58,13.65,31.44-19.84-.98-36.22-10.32-6.95,3.44-18.36,42.74-15.38,2.46,20.84-14.74,3.97,2.46,54.08,33.9,16.87,50.11-43.66.98-17.86-47.65-45.64ZM487.56,384.09l15.23-53.08,11.3,44.15-26.53,8.93Z"/>
    <polyline class="cls-2" points="372.23 347.11 353.27 310.05 322.98 359.61 397.45 390.71 404.7 423.91 368.19 494.08 296.87 481.65 269.09 436.25 253.28 440.37 249.85 429.38 264.97 395.7 283.53 390.2 331.64 406.69 339.2 421.81 319.96 425.25 322.98 442.62 345.69 444.96 364.15 416.69 361.4 404.86 289.6 367.14 283.29 332.69 320.28 281.48 359 272.06 408.49 301.03 418.84 286.26 428.38 291.74 446.94 320.09 436.72 347.41 406.05 367.34"/>
    <polygon class="cls-2" points="566.28 774.57 547.61 743.81 573.5 707.75 635.24 713.98 645.67 736.44 678.45 737.93 690.73 717.52 682 682.23 670.7 677.76 591.23 692.79 559.3 674.36 538.17 614.83 552.42 577.62 604.38 553.35 598.11 536.44 642.32 532.05 661.48 551.82 641.83 627.23 631.02 632.19 621.69 609.37 580.42 603.91 604 657 679.54 644.1 710.98 657 742.36 727.94 697.23 778.54 566.28 774.57"/>
  </g>
</svg>